<?xml version="1.0" encoding="UTF-8" standalone="no"?>
<svg width="250px" height="216px" viewBox="0 0 250 216" version="1.1" xmlns="http://www.w3.org/2000/svg" xmlns:xlink="http://www.w3.org/1999/xlink">
    <!-- Generator: Sketch 3.8.3 (29802) - http://www.bohemiancoding.com/sketch -->
    <title>Newton</title>
    <desc>Created with Sketch.</desc>
    <defs></defs>
    <g id="Page-1" stroke="none" stroke-width="1" fill="none" fill-rule="evenodd">
        <g id="Light" transform="translate(-195.000000, -158.000000)" fill="#000000">
            <g id="Newton" transform="translate(195.000000, 158.000000)">
                <g id="Group" transform="translate(0.000000, -0.000000)">
                    <path d="M124.851266,215.88277 C106.85443,215.88277 96.9208861,207.953468 96.5063291,207.617936 C81.9493671,194.035247 78.2468354,179.034464 78.0981013,178.401386 C78.0474684,178.255778 75.9208861,171.143146 75.9208861,148.710027 C75.9208861,128.378726 78.0316456,122.893105 79.5696203,118.885721 C79.7405063,118.442567 79.8987342,118.027901 80.0474684,117.613234 C81.528481,113.419093 81.1044304,110.63988 80.721519,109.357897 C79.9620253,106.831916 79.4778481,102.080665 79.4620253,101.881246 L79.4493671,92.7174413 C79.4493671,91.4766084 80.4525316,90.4763451 81.693038,90.4763451 C82.9335443,90.4763451 83.9367089,91.4797738 83.9367089,92.7174413 L83.9367089,101.656503 C84.0506329,102.682089 84.4905063,106.312792 85.0189873,108.066418 C85.6803797,110.27586 86.0886076,113.982532 84.278481,119.104133 C84.1170886,119.559949 83.9462025,120.0126 83.7594937,120.490574 C82.3449367,124.168757 80.4082278,129.208058 80.4082278,148.706861 C80.4082278,170.212522 82.4082278,177.157387 82.4272152,177.227026 C82.4968354,177.49925 86.0537975,191.724513 99.4556962,204.234134 L99.4556962,204.234134 C99.4651899,204.234134 108.588608,211.394247 124.85443,211.394247 C126.094937,211.394247 127.098101,212.397675 127.098101,213.638508 C127.098101,214.879341 126.091772,215.88277 124.851266,215.88277 L124.851266,215.88277 Z" id="Shape"></path>
                    <path d="M112.588608,203.316171 C110.661392,203.316171 108.851266,202.948986 107.164557,202.208285 C99.7689873,198.970091 97.9113924,189.860098 97.8386076,189.47392 C97.6012658,188.258411 98.3924051,187.087216 99.6044304,186.846647 C100.81962,186.618738 102,187.394259 102.240506,188.609769 C102.256329,188.679407 103.746835,195.830024 108.987342,198.109105 C112.598101,199.688634 117.341772,198.675709 123.088608,195.133638 C124.151899,194.484733 125.528481,194.813933 126.177215,195.864843 C126.825949,196.918918 126.5,198.305359 125.446203,198.954264 C120.721519,201.860092 116.424051,203.316171 112.588608,203.316171 L112.588608,203.316171 Z" id="Shape"></path>
                    <path d="M125.028481,190.423537 C121.838608,190.423537 119.022152,190.116495 118.841772,190.094337 C117.610759,189.958225 116.724684,188.847173 116.860759,187.619002 C116.996835,186.39083 118.126582,185.523514 119.335443,185.637468 C119.39557,185.640633 125.433544,186.299034 129.303797,185.653295 C130.5,185.438048 131.683544,186.273711 131.882911,187.498717 C132.085443,188.720558 131.259494,189.875925 130.037975,190.07851 C128.493671,190.338072 126.708861,190.423537 125.028481,190.423537 L125.028481,190.423537 Z" id="Shape"></path>
                    <path d="M106.310127,123.215975 C100.914557,123.215975 95.0094937,121.278756 88.7531646,117.4518 C88.1424051,117.078283 87.7468354,116.432544 87.6898734,115.714 C87.6297468,114.998622 87.9208861,114.299071 88.4651899,113.833759 C88.7563291,113.583693 95.6835443,107.753044 104.977848,107.753044 C110.509494,107.753044 115.674051,109.804217 120.325949,113.84642 C121.205696,114.612445 121.351266,115.922916 120.664557,116.863037 C120.471519,117.119434 115.908228,123.215975 106.310127,123.215975 L106.310127,123.215975 Z M94.1677215,115.353146 C98.5348101,117.594242 102.607595,118.727452 106.310127,118.727452 C110.81962,118.727452 113.825949,117.043464 115.481013,115.732993 C112.196203,113.409596 108.674051,112.235237 104.977848,112.235237 C100.496835,112.238402 96.6202532,113.935051 94.1677215,115.353146 L94.1677215,115.353146 Z" id="Shape"></path>
                    <path d="M98.6265823,131.426997 C97.3892405,131.426997 96.3860759,130.423568 96.3860759,129.185901 C96.3829114,127.945068 97.3860759,126.941639 98.6234177,126.938474 C98.8037975,126.938474 116.610759,126.770708 116.610759,115.536738 C116.610759,114.295906 117.613924,113.295642 118.85443,113.295642 C120.094937,113.295642 121.098101,114.299071 121.098101,115.536738 C121.098101,128.103337 106.398734,131.426997 98.6265823,131.426997 L98.6265823,131.426997 Z" id="Shape"></path>
                    <path d="M119.794304,110.953254 C119.06962,110.953254 118.379747,110.605061 117.952532,109.98781 C117.803797,109.785225 115.174051,106.246319 109.259494,106.246319 L94.3797468,106.246319 C94.4367089,106.246319 89.7151899,106.505881 86.7183544,109.199628 C85.9113924,109.924502 84.7025316,109.968817 83.8481013,109.304085 C82.9905063,108.639353 82.7278481,107.458663 83.2310127,106.496384 C83.471519,106.034237 89.2278481,95.173784 98.0443038,95.173784 L112.009494,95.173784 C115.522152,95.2782419 122.041139,98.241047 122.041139,108.708992 C122.041139,109.693428 121.398734,110.560745 120.458861,110.851961 C120.237342,110.9216 120.015823,110.953254 119.794304,110.953254 L119.794304,110.953254 Z M109.259494,101.764126 C112.300633,101.764126 114.737342,102.476339 116.623418,103.397467 C115.072785,99.8142459 112.107595,99.6686379 111.939873,99.6623072 L98.0411392,99.6623072 C96.028481,99.6623072 94.1550633,100.646743 92.556962,101.96038 C93.5474684,101.802111 94.2056962,101.767292 94.2848101,101.764126 L109.259494,101.764126 L109.259494,101.764126 Z" id="Shape"></path>
                    <path d="M119.797468,165.303002 C119.696203,165.303002 119.594937,165.296671 119.490506,165.280844 C118.053797,165.08459 105.436709,163.144206 105.436709,155.414323 C105.436709,149.01707 111.031646,146.921581 113.984177,146.706335 C115.196203,146.639862 116.291139,147.548329 116.386076,148.779665 C116.474684,150.014167 115.550633,151.084069 114.325949,151.179031 C113.585443,151.245504 109.924051,151.751967 109.924051,155.414323 C109.924051,158.434105 116.908228,160.402978 120.098101,160.836636 C121.325949,161.004402 122.183544,162.134446 122.015823,163.362617 C121.867089,164.486331 120.901899,165.303002 119.797468,165.303002 L119.797468,165.303002 Z" id="Shape"></path>
                    <path d="M124.5,169.06665 C120.427215,169.06665 119.072785,165.825291 118.085443,163.457579 C117.610759,162.318039 117.113924,161.140514 116.386076,160.209889 C115.405063,158.962725 112.101266,161.089867 111.53481,161.536187 C110.560127,162.28955 109.155063,162.131281 108.386076,161.15001 C107.626582,160.17507 107.794304,158.763306 108.772152,158.000447 C111.433544,155.91762 116.778481,153.44545 119.914557,157.440173 C121.022152,158.848771 121.658228,160.38082 122.221519,161.726111 C123.303797,164.3154 123.617089,164.578127 124.5,164.578127 C125.740506,164.578127 126.743671,165.581556 126.743671,166.822389 C126.743671,168.063222 125.737342,169.06665 124.5,169.06665 L124.5,169.06665 Z" id="Shape"></path>
                    <path d="M125.202532,183.272921 C116.082278,183.272921 104.433544,180.256304 103.939873,180.126523 C103.050633,179.89545 102.39557,179.142087 102.281646,178.23362 C102.167722,177.321988 102.620253,176.432513 103.424051,175.989359 C103.96519,175.688646 116.810127,168.734284 125.78481,173.764089 C126.867089,174.365513 127.253165,175.732962 126.64557,176.815525 C126.037975,177.898089 124.677215,178.287432 123.594937,177.676511 C120.35443,175.869074 115.933544,176.302732 112.164557,177.331484 C116.085443,178.065854 121,178.784398 125.199367,178.784398 C126.439873,178.784398 127.443038,179.787827 127.443038,181.02866 C127.443038,182.269492 126.443038,183.272921 125.202532,183.272921 L125.202532,183.272921 Z" id="Shape"></path>
                    <path d="M100.03481,161.770426 C99.6582278,161.770426 99.278481,161.67863 98.9272152,161.476045 C97.8512658,160.861959 97.4746835,159.494511 98.085443,158.418278 C98.3322785,157.981454 104.240506,147.754079 112.357595,146.943739 C113.560127,146.782304 114.686709,147.71926 114.810127,148.953762 C114.933544,150.188264 114.03481,151.283489 112.800633,151.406939 C107.984177,151.888078 103.357595,158.234686 101.981013,160.640382 C101.572785,161.368422 100.813291,161.770426 100.03481,161.770426 L100.03481,161.770426 Z" id="Shape"></path>
                    <path d="M161.639241,193.009661 C160.96519,191.968248 161.262658,190.578642 162.303797,189.910744 C163.348101,189.236516 164.737342,189.537228 165.401899,190.575476 C170.974684,199.197999 180.417722,204.341758 190.664557,204.341758 C206.667722,204.341758 219.85443,191.835301 220.68038,175.865908 C220.734177,174.897299 221.401899,174.071132 222.335443,173.817901 C235.420886,170.294822 244.553797,158.35497 244.553797,144.791274 C244.553797,134.592387 239.446203,125.175351 230.892405,119.597934 C229.968354,118.999675 229.620253,117.815819 230.066456,116.809225 C231.772152,112.956946 232.636076,108.864096 232.636076,104.6383 C232.636076,94.6894793 227.721519,85.395894 219.490506,79.780492 C218.667722,79.2202179 218.313291,78.18197 218.623418,77.2323529 C219.601266,74.2283977 220.094937,71.0978269 220.094937,67.9324368 C220.094937,51.3552889 206.610759,37.8643963 190.03481,37.8643963 C189.449367,37.8643963 188.873418,37.8865541 188.294304,37.918208 C187.132911,37.9688542 186.10443,37.139522 185.949367,35.9778238 C183.955696,21.1384751 171.151899,9.94565568 156.167722,9.94565568 C150.477848,9.94565568 144.93038,11.5505085 140.129747,14.589283 C139.496835,14.9881221 138.705696,15.0450991 138.022152,14.7443871 C137.338608,14.443675 136.851266,13.8200932 136.721519,13.0825573 C136.661392,12.7691836 135.098101,5.08361649 125.670886,5.08361649 C115.993671,5.08361649 113.243671,13.0509034 113.132911,13.3896001 C112.917722,14.0448359 112.408228,14.5702906 111.756329,14.8013641 C111.113924,15.0261068 110.386076,14.9596336 109.800633,14.5924483 C104.996835,11.5536738 99.4493671,9.94882107 93.7626582,9.94882107 C78.778481,9.94882107 65.9746835,21.1416405 63.9810127,35.9809892 C63.8259494,37.1426874 62.7626582,37.9720196 61.6360759,37.9213733 C61.056962,37.8897194 60.4810127,37.8675617 59.8955696,37.8675617 C43.3196203,37.8675617 29.835443,51.3552889 29.835443,67.9356022 C29.835443,71.1009923 30.3291139,74.2283977 31.306962,77.2355183 C31.6170886,78.18197 31.2594937,79.2202179 30.4398734,79.7836574 C22.2056962,85.3990594 17.2943038,94.6894793 17.2943038,104.641466 C17.2943038,108.864096 18.1582278,112.960111 19.8639241,116.812391 C20.3132911,117.815819 19.9620253,118.999675 19.0379747,119.601099 C10.4841772,125.178517 5.37658228,134.595552 5.37658228,144.794439 C5.37658228,158.358136 14.5126582,170.297987 27.5949367,173.821066 C28.5316456,174.074298 29.1993671,174.90363 29.25,175.869074 C30.0791139,191.838467 43.2658228,204.344923 59.2658228,204.344923 C69.5126582,204.344923 78.9588608,199.201164 84.528481,190.578642 C85.1993671,189.540394 86.5886076,189.239681 87.6265823,189.91391 C88.6677215,190.584972 88.9651899,191.971413 88.2911392,193.012826 C81.8924051,202.917332 71.0379747,208.830281 59.2626582,208.830281 C41.4082278,208.830281 26.6075949,195.282411 24.8860759,177.695504 C10.6772152,173.150004 0.882911392,159.842704 0.882911392,144.788108 C0.882911392,133.693416 6.14556962,123.399567 15.0474684,116.894691 C13.556962,112.979103 12.8006329,108.864096 12.8006329,104.635135 C12.8006329,93.7525239 17.9177215,83.5568024 26.5664557,77.0360988 C25.7563291,74.0732936 25.3449367,71.0186922 25.3449367,67.9356022 C25.3449367,48.8926154 40.8291139,33.4011963 59.8607595,33.382204 C62.9873418,17.3305108 77.2151899,5.46346331 93.7594937,5.46346331 C99.4398734,5.46346331 104.996835,6.85623495 109.977848,9.51199724 C112.218354,5.54259806 117.196203,0.601424118 125.667722,0.601424118 C134.041139,0.601424118 138.392405,5.37483238 140.202532,9.37588546 C145.120253,6.8087541 150.582278,5.46346331 156.167722,5.46346331 C172.712025,5.46346331 186.939873,17.3305108 190.066456,33.382204 C209.101266,33.3980309 224.582278,48.8926154 224.582278,67.9356022 C224.582278,71.0186922 224.170886,74.0732936 223.360759,77.0360988 C232.006329,83.5568024 237.126582,93.7556892 237.126582,104.635135 C237.126582,108.864096 236.370253,112.979103 234.879747,116.894691 C243.778481,123.399567 249.044304,133.693416 249.044304,144.788108 C249.044304,159.842704 239.25,173.150004 225.041139,177.695504 C223.322785,195.27608 208.522152,208.827115 190.667722,208.827115 C178.892405,208.827115 168.041139,202.914167 161.639241,193.009661 Z" id="Shape"></path>
                    <path d="M197.64557,157.775704 C184.452532,157.775704 180.338608,148.257376 180.009494,143.227571 C180.196203,139.413276 180.933544,135.877535 182.205696,132.525387 C173.303797,126.01418 168.037975,115.720331 168.037975,104.63197 C168.037975,101.54888 168.449367,98.4942782 169.259494,95.5314731 C162.452532,90.3908796 157.768987,82.904732 156.142405,74.5670945 C149.683544,74.5639291 143.439873,72.7818145 137.993671,69.3980125 C135.85443,70.692657 131.341772,72.8419569 124.968354,72.8419569 C118.594937,72.8419569 114.082278,70.692657 111.943038,69.3980125 C106.493671,72.7818145 100.253165,74.5639291 93.7943038,74.5670945 C92.1677215,82.904732 87.4873418,90.394045 80.6772152,95.5314731 C81.4873418,98.4974436 81.8987342,101.54888 81.8987342,104.63197 C81.8987342,115.720331 76.6360759,126.01418 67.7310127,132.525387 C69.0031646,135.871204 69.7436709,139.372126 69.9303797,142.961678 C69.5981013,148.257376 65.4841772,157.775704 52.2911392,157.775704 C48.3006329,157.775704 40.7531646,155.363677 40.7531646,146.234692 C40.7531646,143.040813 41.7848101,140.457855 43.8196203,138.555455 C47.5759494,135.048203 53.3797468,135.399561 53.6170886,135.412223 C56.3924051,135.6338 61.5917722,137.564688 61.5917722,143.294044 C61.5917722,144.534877 60.5886076,145.538306 59.3481013,145.538306 C58.1075949,145.538306 57.1044304,144.534877 57.1044304,143.294044 C57.1044304,140.391382 53.914557,139.941896 53.2721519,139.884919 L53.2721519,139.884919 C53.2689873,139.888085 49.1803797,139.669673 46.8702532,141.847461 C45.7753165,142.876213 45.2436709,144.3133 45.2436709,146.234692 C45.2436709,153.087761 51.5696203,153.287181 52.2943038,153.287181 C64.6329114,153.287181 65.4272152,143.354187 65.4556962,142.93319 C65.2626582,139.536726 64.4113924,135.978828 62.9240506,132.620349 C62.4746835,131.61692 62.8259494,130.43623 63.7468354,129.83164 C72.3037975,124.244727 77.4113924,114.827691 77.4113924,104.635135 C77.4113924,101.469745 76.9177215,98.3423395 75.9398734,95.3383843 C75.6297468,94.3919327 75.9873418,93.3536847 76.806962,92.7902453 C83.8575949,87.9788523 88.5443038,80.3914123 89.6740506,71.9683092 C89.8291139,70.8066111 90.8639241,69.929798 92.0189873,70.0279251 C98.5759494,70.376118 105.212025,68.6034995 110.696203,64.8556777 C111.509494,64.2954036 112.607595,64.3365537 113.379747,64.9696317 C113.411392,64.9949548 117.712025,68.3565991 124.96519,68.3565991 C132.218354,68.3565991 136.518987,64.9949548 136.563291,64.9601355 C137.325949,64.3492153 138.420886,64.298569 139.234177,64.8556777 C144.721519,68.6066649 151.351266,70.376118 157.911392,70.0279251 C159.072785,69.929798 160.101266,70.8066111 160.256329,71.9683092 C161.386076,80.3914123 166.075949,87.9788523 173.123418,92.7902453 C173.946203,93.3505193 174.300633,94.3887673 173.990506,95.3383843 C173.012658,98.3423395 172.518987,101.47291 172.518987,104.635135 C172.518987,114.827691 177.626582,124.244727 186.183544,129.83164 C187.10443,130.433064 187.452532,131.613755 187.006329,132.620349 C185.518987,135.978828 184.667722,139.536726 184.477848,143.199083 C184.553797,143.984099 185.617089,153.290346 197.636076,153.290346 C198.803797,153.277685 204.686709,152.878845 204.686709,146.237857 C204.686709,144.310134 204.151899,142.873047 203.044304,141.837965 C200.737342,139.676003 196.651899,139.894415 196.613924,139.89125 C196.015823,139.948227 192.825949,140.394547 192.825949,143.29721 C192.825949,144.538043 191.822785,145.541471 190.582278,145.541471 C189.341772,145.541471 188.338608,144.538043 188.338608,143.29721 C188.338608,137.564688 193.537975,135.636966 196.28481,135.418554 C196.566456,135.405892 202.360759,135.054534 206.107595,138.558621 C208.142405,140.46102 209.174051,143.043978 209.174051,146.237857 C209.183544,155.363677 201.636076,157.775704 197.64557,157.775704 L197.64557,157.775704 Z" id="Shape"></path>
                    <path d="M105.329114,120.838767 C101.693038,120.838767 98.7341772,117.879127 98.7341772,114.242094 C98.7341772,110.605061 101.693038,107.648586 105.329114,107.648586 C108.96519,107.648586 111.924051,110.608226 111.924051,114.242094 C111.924051,117.879127 108.968354,120.838767 105.329114,120.838767 L105.329114,120.838767 Z M105.329114,112.130779 C104.167722,112.130779 103.221519,113.07723 103.221519,114.242094 C103.221519,115.406958 104.167722,116.350244 105.329114,116.350244 C106.490506,116.350244 107.436709,115.403792 107.436709,114.242094 C107.436709,113.080396 106.490506,112.130779 105.329114,112.130779 L105.329114,112.130779 Z" id="Shape"></path>
                    <path d="M124.851266,215.88277 C123.610759,215.88277 122.607595,214.879341 122.607595,213.638508 C122.607595,212.397675 123.610759,211.394247 124.851266,211.394247 C141.253165,211.394247 150.022152,204.224638 150.107595,204.155 C163.417722,191.724513 166.968354,177.49925 167.003165,177.356807 C167.060127,177.160553 169.056962,170.212522 169.056962,148.706861 C169.056962,129.195397 167.120253,124.162427 165.702532,120.484243 C165.518987,120.009435 165.348101,119.553619 165.186709,119.100968 C163.379747,113.976201 163.787975,110.272695 164.449367,108.066418 C164.977848,106.303296 165.417722,102.675759 165.544304,101.428595 L165.531646,92.7142759 C165.531646,91.473443 166.53481,90.4731797 167.775316,90.4731797 C169.015823,90.4731797 170.018987,91.4766084 170.018987,92.7142759 L170.018987,101.653338 C169.987342,102.0775 169.503165,106.825585 168.746835,109.354732 C168.363924,110.636715 167.939873,113.415927 169.417722,117.610069 C169.566456,118.02157 169.724684,118.439401 169.892405,118.87306 C171.433544,122.877278 173.544304,128.362899 173.544304,148.706861 C173.544304,171.139981 171.414557,178.252612 171.325949,178.543828 C171.21519,179.028133 167.518987,194.035247 153.072785,207.516644 C152.579114,207.934475 142.863924,215.88277 124.851266,215.88277 L124.851266,215.88277 Z" id="Shape"></path>
                    <path d="M136.879747,203.316171 C133.044304,203.316171 128.743671,201.856926 124.025316,198.951098 C122.971519,198.299028 122.642405,196.915752 123.294304,195.861678 C123.946203,194.807603 125.325949,194.475237 126.382911,195.130472 C132.136076,198.675709 136.886076,199.679138 140.481013,198.109105 C145.724684,195.826858 147.21519,188.679407 147.231013,188.606603 C147.474684,187.391094 148.651899,186.615573 149.867089,186.843481 C151.079114,187.084051 151.870253,188.258411 151.632911,189.470755 C151.560127,189.856933 149.702532,198.966925 142.303797,202.205119 C140.617089,202.948986 138.803797,203.316171 136.879747,203.316171 L136.879747,203.316171 Z" id="Shape"></path>
                    <path d="M143.158228,123.215975 L143.158228,123.215975 C133.560127,123.215975 128.993671,117.119434 128.803797,116.859872 C128.117089,115.919751 128.262658,114.609279 129.142405,113.843255 C133.794304,109.801052 138.958861,107.749879 144.490506,107.749879 C153.78481,107.749879 160.712025,113.583693 161.003165,113.830593 C161.547468,114.295906 161.838608,114.998622 161.778481,115.710835 C161.721519,116.429379 161.325949,117.075118 160.71519,117.448634 C154.462025,121.275591 148.553797,123.215975 143.158228,123.215975 L143.158228,123.215975 Z M133.990506,115.732993 C135.64557,117.04663 138.655063,118.730617 143.158228,118.730617 L143.158228,118.730617 C146.857595,118.730617 150.927215,117.600573 155.291139,115.362642 C152.825949,113.941382 148.939873,112.238402 144.490506,112.238402 C140.794304,112.238402 137.272152,113.412762 133.990506,115.732993 L133.990506,115.732993 Z" id="Shape"></path>
                    <path d="M150.841772,131.426997 C143.06962,131.426997 128.370253,128.103337 128.370253,115.536738 C128.370253,114.295906 129.373418,113.295642 130.613924,113.295642 C131.85443,113.295642 132.857595,114.299071 132.857595,115.536738 C132.857595,126.808693 150.661392,126.938474 150.841772,126.938474 C152.082278,126.938474 153.085443,127.941902 153.085443,129.182735 C153.085443,130.423568 152.082278,131.426997 150.841772,131.426997 L150.841772,131.426997 Z" id="Shape"></path>
                    <path d="M129.674051,110.943757 C129.449367,110.943757 129.218354,110.908938 128.996835,110.8393 C128.06962,110.541753 127.43038,109.687098 127.43038,108.712157 C127.43038,98.2442124 133.946203,95.2814073 137.389241,95.1769494 L151.427215,95.1769494 C160.243671,95.1769494 165.996835,106.037403 166.240506,106.49955 C166.740506,107.461828 166.481013,108.642519 165.626582,109.307251 C164.768987,109.968817 163.556962,109.927667 162.753165,109.202793 C159.753165,106.505881 155.037975,106.246319 154.990506,106.246319 L140.208861,106.246319 C134.25,106.246319 131.626582,109.835871 131.518987,109.990975 C131.082278,110.595565 130.389241,110.943757 129.674051,110.943757 L129.674051,110.943757 Z M137.458861,99.6623072 C137.110759,99.6844649 134.341772,99.9788462 132.85443,103.391137 C134.737342,102.473174 137.170886,101.764126 140.205696,101.764126 L155.088608,101.764126 C155.199367,101.767292 155.886076,101.802111 156.901899,101.963546 C155.262658,100.634082 153.389241,99.6623072 151.427215,99.6623072 L137.458861,99.6623072 L137.458861,99.6623072 Z" id="Shape"></path>
                    <path d="M124.617089,117.071953 C120.658228,117.071953 117.433544,113.320965 117.433544,108.708992 C117.433544,107.468159 118.436709,106.467896 119.677215,106.467896 C120.917722,106.467896 121.920886,107.471325 121.920886,108.708992 C121.920886,110.810811 123.155063,112.58343 124.617089,112.58343 C126.079114,112.58343 127.313291,110.807646 127.313291,108.708992 C127.313291,107.468159 128.316456,106.467896 129.556962,106.467896 C130.797468,106.467896 131.800633,107.471325 131.800633,108.708992 C131.797468,113.320965 128.575949,117.071953 124.617089,117.071953 L124.617089,117.071953 Z" id="Shape"></path>
                    <path d="M129.670886,165.303002 C128.566456,165.303002 127.607595,164.486331 127.452532,163.362617 C127.28481,162.137611 128.14557,161.007567 129.370253,160.836636 C132.556962,160.396647 139.544304,158.421444 139.544304,155.414323 C139.544304,151.748801 135.879747,151.245504 135.142405,151.179031 C133.911392,151.074573 132.993671,149.995175 133.091772,148.767004 C133.186709,147.532502 134.265823,146.624035 135.484177,146.706335 C138.439873,146.921581 144.031646,149.01707 144.031646,155.414323 C144.031646,163.144206 131.414557,165.087755 129.977848,165.280844 C129.873418,165.296671 129.772152,165.303002 129.670886,165.303002 L129.670886,165.303002 Z" id="Shape"></path>
                    <path d="M124.968354,169.06665 C123.727848,169.06665 122.724684,168.063222 122.724684,166.822389 C122.724684,165.581556 123.727848,164.578127 124.968354,164.578127 C125.848101,164.578127 126.164557,164.3154 127.246835,161.726111 C127.813291,160.377655 128.449367,158.848771 129.553797,157.440173 C132.689873,153.451781 138.037975,155.91762 140.696203,158.000447 C141.670886,158.763306 141.841772,160.168739 141.082278,161.143679 C140.322785,162.12495 138.917722,162.292716 137.936709,161.539353 C136.955696,160.779659 133.987342,159.051356 133.082278,160.209889 C132.35443,161.140514 131.857595,162.318039 131.382911,163.457579 C130.39557,165.825291 129.041139,169.06665 124.968354,169.06665 L124.968354,169.06665 Z" id="Shape"></path>
                    <path d="M124.265823,183.272921 C123.025316,183.272921 122.022152,182.269492 122.022152,181.02866 C122.022152,179.787827 123.025316,178.784398 124.265823,178.784398 C128.462025,178.784398 133.370253,178.065854 137.287975,177.334649 C133.64557,176.315394 129.177215,175.789939 125.787975,177.676511 C124.705696,178.287432 123.344937,177.894923 122.737342,176.815525 C122.129747,175.736127 122.518987,174.368679 123.598101,173.764089 C132.572785,168.73745 145.487342,175.685481 146.03481,175.986193 C146.841772,176.429348 147.297468,177.315657 147.183544,178.230455 C147.072785,179.142087 146.414557,179.892285 145.525316,180.126523 C145.03481,180.256304 133.382911,183.272921 124.265823,183.272921 L124.265823,183.272921 Z" id="Shape"></path>
                    <path d="M149.433544,161.770426 C148.655063,161.770426 147.898734,161.365256 147.484177,160.643547 C146.107595,158.237851 141.484177,151.891244 136.664557,151.410104 C135.43038,151.286654 134.531646,150.188264 134.655063,148.956927 C134.778481,147.72559 135.89557,146.804462 137.107595,146.946904 C145.221519,147.757244 151.132911,157.98462 151.379747,158.421444 C151.990506,159.497676 151.613924,160.861959 150.537975,161.47921 C150.189873,161.67863 149.810127,161.770426 149.433544,161.770426 L149.433544,161.770426 Z" id="Shape"></path>
                    <path d="M144.139241,120.838767 C140.503165,120.838767 137.544304,117.879127 137.544304,114.242094 C137.544304,110.605061 140.503165,107.648586 144.139241,107.648586 C147.775316,107.648586 150.734177,110.608226 150.734177,114.242094 C150.734177,117.879127 147.775316,120.838767 144.139241,120.838767 L144.139241,120.838767 Z M144.139241,112.130779 C142.977848,112.130779 142.031646,113.07723 142.031646,114.242094 C142.031646,115.406958 142.977848,116.350244 144.139241,116.350244 C145.300633,116.350244 146.246835,115.403792 146.246835,114.242094 C146.246835,113.080396 145.300633,112.130779 144.139241,112.130779 L144.139241,112.130779 Z" id="Shape"></path>
                    <path d="M36.5316456,111.712947 C36.3765823,111.712947 36.2183544,111.69712 36.0632911,111.662301 C34.8512658,111.402739 34.0791139,110.212552 34.335443,109.000208 C35.8987342,101.67233 40.8449367,98.9121097 45.2088608,96.4779247 C50.6708861,93.4296541 54.6170886,91.2265426 52.278481,80.5718395 C50.9113924,74.3296902 51.2120253,70.0374213 53.2246835,67.0619546 C55.7278481,63.3647789 60.1392405,62.6304084 64.806962,61.8517225 C69.1170886,61.1363443 73.5727848,60.395643 77.0696203,57.3410416 C80.8607595,54.0237128 82.4588608,49.5193627 83.8670886,45.5436327 C85.3670886,41.3178369 86.7816456,37.32628 90.6170886,35.9050199 C94.0917722,34.6198715 98.7151899,35.8100582 105.623418,39.7667958 C108.297468,41.2988446 111.088608,42.1250114 113.787975,42.9195243 C120.401899,44.87257 127.243671,46.8920889 127.243671,59.3478989 C127.243671,60.5887318 126.240506,61.5889951 125,61.5889951 C123.759494,61.5889951 122.756329,60.5855664 122.756329,59.3478989 C122.756329,50.2474024 118.901899,49.1078619 112.518987,47.2212895 C109.708861,46.3919572 106.522152,45.4518364 103.392405,43.6602256 C97.971519,40.5581433 94.2025316,39.371122 92.1772152,40.1086579 C90.306962,40.8018783 89.3322785,43.5557677 88.0949367,47.0440276 C86.5791139,51.3141388 84.6962025,56.6288288 80.0189873,60.7185128 C75.5632911,64.6087772 70.2373418,65.4950865 65.5411392,66.2769378 C61.6898734,66.9163466 58.3607595,67.4702899 56.9367089,69.5752743 C55.693038,71.4112006 55.6012658,74.7855064 56.6582278,79.6063955 C59.7056962,93.518285 53.164557,97.1679798 47.3892405,100.390347 C43.3481013,102.644105 39.8575949,104.593985 38.721519,109.930833 C38.4968354,110.991238 37.5664557,111.712947 36.5316456,111.712947 L36.5316456,111.712947 Z" id="Shape"></path>
                    <path d="M61.8101266,197.327253 C58.8797468,197.327253 55.9050633,196.754318 53.0411392,195.545139 C43.6360759,191.563078 39.2183544,180.667805 43.1962025,171.2571 C46.4746835,163.498729 55.443038,159.855365 63.2056962,163.14104 C66.3196203,164.457842 68.7373418,166.91102 70.0094937,170.047921 C71.278481,173.184823 71.2563291,176.628767 69.9367089,179.743511 C67.6613924,185.115178 61.4367089,187.628498 56.0727848,185.368409 C54.9335443,184.88727 54.3987342,183.570468 54.8765823,182.427762 C55.3575949,181.288222 56.6740506,180.759601 57.8164557,181.231245 C60.914557,182.544881 64.4968354,181.085637 65.806962,177.99305 C66.6582278,175.979862 66.6740506,173.757759 65.8544304,171.731909 C65.0348101,169.706059 63.471519,168.120199 61.4556962,167.268709 C55.9810127,164.954809 49.6424051,167.525105 47.3227848,173.004396 C44.3101266,180.13602 47.6582278,188.394522 54.7879747,191.414304 C63.9746835,195.304569 74.6329114,190.980646 78.5253165,181.778857 C79.0063291,180.639317 80.3196203,180.110696 81.4651899,180.58867 C82.6044304,181.06981 83.1360759,182.383447 82.6550633,183.529318 C79.0158228,192.142344 70.6202532,197.327253 61.8101266,197.327253 L61.8101266,197.327253 Z" id="Shape"></path>
                    <path d="M29.0094937,162.096461 C28.8291139,162.096461 28.6518987,162.074304 28.471519,162.029988 C27.8765823,161.881215 13.8386076,158.310655 13.8386076,146.924747 C13.8386076,136.099113 23.4588608,124.899962 39.5537975,124.899962 C52.4936709,124.899962 62.6265823,114.53331 62.6265823,101.292483 C62.6265823,100.05165 63.6297468,99.0513869 64.8702532,99.0513869 C66.1107595,99.0513869 67.1139241,100.054816 67.1139241,101.292483 C67.1139241,117.04663 55.0094937,129.388486 39.5537975,129.388486 C26.2658228,129.388486 18.3259494,138.302224 18.3259494,146.924747 C18.3259494,154.831891 29.4272152,157.645923 29.5411392,157.674411 C30.7436709,157.971958 31.4778481,159.184303 31.1867089,160.387151 C30.9335443,161.409572 30.0158228,162.096461 29.0094937,162.096461 L29.0094937,162.096461 Z" id="Shape"></path>
                    <path d="M52.1139241,53.9509088 C51.7753165,53.9509088 51.5822785,53.944578 51.5632911,53.9414126 C50.3259494,53.8749394 49.3829114,52.8208645 49.4462025,51.5863624 C49.5094937,50.3518603 50.4778481,49.4054086 51.8006329,49.4623856 C52.5221519,49.5067011 69.6772152,50.1682676 74.8670886,34.129236 C75.2468354,32.9485455 76.5126582,32.3091367 77.6898734,32.6858181 C78.8702532,33.0688303 79.5158228,34.331821 79.1329114,35.5125115 C73.4398734,53.1025842 55.4936709,53.9509088 52.1139241,53.9509088 L52.1139241,53.9509088 Z" id="Shape"></path>
                    <path d="M213.462025,111.712947 C212.427215,111.712947 211.496835,110.991238 211.272152,109.937163 C210.386076,105.77151 207.927215,104.853547 204.212025,103.467106 C200.256329,101.988869 195.335443,100.152943 192.449367,93.4423156 C190.996835,90.061679 191.984177,85.6649522 193.025316,81.0118287 C194.098101,76.2320897 195.202532,71.2909157 193.332278,68.5053725 C191.787975,66.2072992 187.183544,65.5330712 182.731013,64.8778354 C178.006329,64.184615 173.117089,63.4660714 169.981013,60.7248436 C167.14557,58.2495085 165.75,53.8496163 164.398734,49.5921666 C162.933544,44.9833587 161.424051,40.2194466 158.468354,39.0894023 C156.053797,38.161943 152.072785,40.4821739 148.234177,42.7201047 C144.107595,45.1258012 139.844937,47.6137978 135.547468,47.6137978 C134.306962,47.6137978 133.303797,46.6103692 133.303797,45.3727016 C133.303797,44.1350341 134.306962,43.1316054 135.547468,43.1316054 C138.632911,43.1316054 142.363924,40.9538171 145.974684,38.8488326 C150.727848,36.0759509 155.64557,33.2017767 160.06962,34.8984258 C165.041139,36.8008253 166.886076,42.6156469 168.674051,48.2342143 C169.838608,51.9029014 171.044304,55.6982041 172.933544,57.3473724 C175.075949,59.2212833 179.300633,59.8416998 183.382911,60.4399585 C188.803797,61.2344714 194.405063,62.0574728 197.053797,66.0015489 C200.006329,70.391945 198.623418,76.5549595 197.405063,81.9930997 C196.563291,85.7440869 195.693038,89.6248552 196.572785,91.6696972 C198.699367,96.6172019 202.139241,97.9023503 205.781646,99.263468 C209.756329,100.748036 214.259494,102.428858 215.661392,109.003373 C215.917722,110.215718 215.14557,111.405904 213.933544,111.665466 C213.775316,111.69712 213.617089,111.712947 213.462025,111.712947 L213.462025,111.712947 Z" id="Shape"></path>
                    <path d="M188.183544,197.327253 C179.370253,197.327253 170.977848,192.142344 167.338608,183.529318 C166.857595,182.386612 167.389241,181.072975 168.528481,180.58867 C169.664557,180.110696 170.981013,180.639317 171.468354,181.778857 C175.360759,190.980646 186.025316,195.301404 195.205696,191.414304 C202.335443,188.394522 205.686709,180.13602 202.670886,173.00123 C200.35443,167.528271 194.018987,164.954809 188.537975,167.268709 C186.522152,168.123364 184.962025,169.709225 184.139241,171.731909 C183.316456,173.754593 183.335443,175.979862 184.186709,177.99305 C185.496835,181.088802 189.079114,182.544881 192.177215,181.231245 C193.310127,180.756436 194.632911,181.288222 195.117089,182.427762 C195.594937,183.567302 195.060127,184.884105 193.920886,185.368409 C188.560127,187.625333 182.332278,185.115178 180.056962,179.743511 C178.737342,176.628767 178.712025,173.184823 179.984177,170.047921 C181.256329,166.914185 183.674051,164.457842 186.787975,163.14104 C194.553797,159.858531 203.522152,163.501895 206.797468,171.253935 C210.775316,180.667805 206.35443,191.563078 196.952532,195.545139 C194.088608,196.754318 191.113924,197.327253 188.183544,197.327253 L188.183544,197.327253 Z" id="Shape"></path>
                    <path d="M220.987342,162.096461 C219.981013,162.096461 219.066456,161.409572 218.810127,160.390316 C218.512658,159.187468 219.25,157.971958 220.449367,157.677577 C220.560127,157.645923 231.667722,154.790741 231.667722,146.927912 C231.667722,138.305389 223.727848,129.391651 210.439873,129.391651 C194.984177,129.391651 182.879747,117.049795 182.879747,101.295648 C182.879747,100.054816 183.882911,99.0545523 185.123418,99.0545523 C186.363924,99.0545523 187.367089,100.057981 187.367089,101.295648 C187.367089,114.536475 197.5,124.903128 210.439873,124.903128 C226.53481,124.903128 236.155063,136.102278 236.155063,146.927912 C236.155063,158.316986 222.117089,161.887546 221.522152,162.033154 C221.341772,162.074304 221.164557,162.096461 220.987342,162.096461 L220.987342,162.096461 Z" id="Shape"></path>
                    <path d="M197.879747,53.9509088 C194.503165,53.9509088 176.553797,53.1025842 170.860759,35.5093461 C170.477848,34.3286556 171.123418,33.0656649 172.303797,32.6826527 C173.474684,32.3059713 174.743671,32.9453801 175.126582,34.1260706 C180.316456,50.1619368 197.471519,49.4908741 198.193038,49.4592202 C199.477848,49.3547624 200.484177,50.3455295 200.547468,51.583197 C200.613924,52.8176991 199.667722,53.871774 198.43038,53.9382472 C198.411392,53.944578 198.221519,53.9509088 197.879747,53.9509088 L197.879747,53.9509088 Z" id="Shape"></path>
                    <path d="M123.075949,33.6132774 C110.401899,33.6132774 100.696203,27.2856626 100.550633,27.1907009 C99.5221519,26.5038113 99.2468354,25.114205 99.9303797,24.0854532 C100.620253,23.0535361 102.003165,22.7749817 103.037975,23.4555406 C103.829114,23.9809954 122.620253,36.1455895 141.139241,23.4713676 C142.170886,22.7718163 143.560127,23.0408745 144.256329,24.0569647 C144.955696,25.0793857 144.696203,26.4753228 143.670886,27.174874 C136.617089,32.0020939 129.46519,33.6132774 123.075949,33.6132774 L123.075949,33.6132774 Z" id="Shape"></path>
                </g>
            </g>
        </g>
    </g>
</svg>